<svg aria-hidden="true" style="position: absolute; width: 0; height: 0; overflow: hidden;" version="1.1" xmlns="http://www.w3.org/2000/svg" xmlns:xlink="http://www.w3.org/1999/xlink">
<defs>
<symbol id="icon-antena" viewBox="0 0 72 32">
    <path fill="#f5f4fa" style="fill: var(--color1, #f5f4fa)" d="M1.070 0h69.86c0.6 0 1.070 0.48 1.070 1.070v29.86c0 0.6-0.48 1.070-1.070 1.070h-69.86c-0.6 0-1.070-0.48-1.070-1.070v-29.86c0-0.6 0.48-1.070 1.070-1.070z"></path>
    <path fill="#212121" style="fill: var(--color2, #212121)" d="M44.62 19.56l-4.93-4.96 0.55-2.7c0.135 0.054 0.292 0.086 0.456 0.086 0.696 0 1.26-0.564 1.26-1.26s-0.564-1.26-1.26-1.26c-0.696 0-1.26 0.564-1.26 1.26 0 0.152 0.027 0.298 0.076 0.433l-0.003-0.009-2.89 0.35-4.72-4.74c-0.055-0.059-0.133-0.096-0.22-0.096s-0.165 0.037-0.22 0.096l-0.88 0.88c-0.057 0.056-0.092 0.134-0.092 0.22s0.035 0.164 0.092 0.22l0.48 0.48c-0.661 1.199-1.050 2.628-1.050 4.148 0 2.431 0.995 4.629 2.599 6.211l0.001 0.001c-0.020 0.1-0.030 0.21-0.030 0.32v3.6h-3.73c-0.86 0-1.56 0.7-1.56 1.56v0.62c0 0.18 0.14 0.31 0.31 0.31h14.31c0.18 0 0.32-0.13 0.32-0.3v-0.63c0-0.86-0.7-1.55-1.56-1.55h-3.73v-1.6c0.533 0.117 1.146 0.184 1.775 0.184 1.504 0 2.918-0.383 4.151-1.056l-0.045 0.023 0.48 0.47c0.055 0.059 0.133 0.096 0.22 0.096s0.165-0.037 0.22-0.096l0-0 0.88-0.87c0.057-0.056 0.092-0.134 0.092-0.22s-0.035-0.164-0.092-0.22l-0-0zM40.25 10.3c0.111-0.105 0.261-0.17 0.426-0.17 0.342 0 0.62 0.278 0.62 0.62 0 0.338-0.27 0.612-0.606 0.62h-0.001c-0.004 0-0.009 0-0.014 0-0.342 0-0.62-0.278-0.62-0.62 0-0.177 0.074-0.337 0.193-0.45l0-0zM39.51 12.35l-0.34 1.71-0.7-0.69 1.040-1.020zM39.16 11.82l-1.12 1.11-0.86-0.87 1.98-0.24zM40.66 23.47c0.52 0 0.94 0.41 0.94 0.93v0.31h-13.69v-0.31c0-0.52 0.42-0.93 0.94-0.93h11.82zM36.31 22.22v0.62h-3.1v-0.62h3.1zM33.21 21.6v-2.36c0-0.76 0.69-1.37 1.55-1.37s1.55 0.61 1.55 1.37v2.36h-3.1zM36.94 20.61v-1.37c0-1.1-0.98-2-2.18-2-0.78 0-1.5 0.39-1.92 1.050-1.376-1.449-2.223-3.412-2.223-5.574 0-1.35 0.33-2.622 0.914-3.741l-0.021 0.045 10.86 10.91c-1.064 0.553-2.323 0.877-3.658 0.877-0.628 0-1.239-0.072-1.826-0.207l0.054 0.011zM43.52 20.21l-12.28-12.35 0.44-0.44 4.63 4.65 7.65 7.7-0.44 0.44z"></path>
    <path fill="#2196f3" style="fill: var(--color3, #2196f3)" d="M34.76 18.49c-0.516 0-0.935 0.419-0.935 0.935s0.419 0.935 0.935 0.935v0c0.516 0 0.935-0.419 0.935-0.935s-0.419-0.935-0.935-0.935v0zM34.98 19.64c-0.056 0.056-0.134 0.091-0.22 0.091-0.172 0-0.311-0.139-0.311-0.311 0-0.086 0.035-0.164 0.091-0.22v0c0.056-0.056 0.133-0.090 0.218-0.090 0.001 0 0.001 0 0.002 0h-0c0 0 0.001 0 0.002 0 0.171 0 0.31 0.139 0.31 0.31 0 0.086-0.035 0.164-0.092 0.22l-0 0z"></path>
</symbol>
<symbol id="icon-astronauta" viewBox="0 0 72 32">
    <path fill="#f5f4fa" style="fill: var(--color1, #f5f4fa)" d="M1.070 0h69.86c0.6 0 1.070 0.48 1.070 1.070v29.86c0 0.6-0.48 1.070-1.070 1.070h-69.86c-0.6 0-1.070-0.48-1.070-1.070v-29.86c0-0.6 0.48-1.070 1.070-1.070z"></path>
    <path fill="#2196f3" style="fill: var(--color3, #2196f3)" d="M45.32 9.3c-0.040-0.107-0.134-0.184-0.248-0.2l-0.002-0-1.12-0.17-0.5-1c-0.1-0.22-0.45-0.22-0.55 0l-0.5 1-1.12 0.16c-0.155 0.018-0.274 0.149-0.274 0.308 0 0.092 0.040 0.175 0.104 0.232l0 0 0.8 0.78-0.18 1.11c-0.003 0.017-0.005 0.036-0.005 0.056 0 0.171 0.139 0.31 0.31 0.31 0.053 0 0.103-0.013 0.147-0.037l-0.002 0.001 1-0.53 1 0.53c0.039 0.019 0.085 0.031 0.134 0.031 0.171 0 0.31-0.139 0.31-0.31 0-0.018-0.002-0.035-0.004-0.052l0 0.002-0.19-1.1 0.81-0.8c0.090-0.080 0.12-0.2 0.080-0.31zM43.88 10.080c-0.059 0.055-0.096 0.133-0.096 0.22 0 0.021 0.002 0.042 0.006 0.062l-0-0.002 0.11 0.65-0.58-0.31c-0.042-0.024-0.092-0.037-0.145-0.037s-0.103 0.014-0.147 0.038l0.002-0.001-0.58 0.3 0.1-0.64c0.005-0.020 0.008-0.044 0.008-0.068 0-0.083-0.034-0.158-0.088-0.212v0l-0.47-0.46 0.65-0.1c0.1-0.010 0.19-0.070 0.23-0.17l0.3-0.59 0.29 0.6c0.040 0.090 0.13 0.15 0.23 0.16l0.65 0.1-0.47 0.46zM41.91 18.64h-0.62v0.62h0.62v-0.62zM41.91 19.88h-0.62v0.62h0.62v-0.62zM42.53 19.26h-0.62v0.62h0.62v-0.62zM41.29 19.26h-0.62v0.62h0.62v-0.62zM39.73 22.060h-0.62v0.62h0.62v-0.62zM39.73 23.3h-0.62v0.63h0.62v-0.63zM40.36 22.68h-0.63v0.62h0.63v-0.62zM39.11 22.68h-0.62v0.62h0.62v-0.62zM36 20.82h-0.62v0.62h0.62v-0.62zM36 22.060h-0.62v0.62h0.62v-0.62zM36.62 21.44h-0.62v0.62h0.62v-0.62zM35.38 21.44h-0.62v0.62h0.62v-0.62zM30.090 10.24h-0.62v0.62h0.62v-0.62zM30.090 11.48h-0.62v0.62h0.62v-0.62zM30.71 10.86h-0.62v0.62h0.62v-0.62zM29.47 10.86h-0.63v0.62h0.63v-0.62z"></path>
    <path fill="#212121" style="fill: var(--color2, #212121)" d="M41.080 14.93c-0.163-0.218-0.406-0.369-0.684-0.409l-0.006-0.001c-0.28-0.040-0.56 0.030-0.78 0.2l-0.73 0.56-1.1 0.83-0.8-0.32c1.404-0.656 2.359-2.057 2.359-3.68 0-2.226-1.796-4.032-4.017-4.050h-0.002c-2.231 0.014-4.035 1.826-4.035 4.060 0 0.809 0.237 1.563 0.645 2.196l-0.010-0.016-1.64-0.020-0.090 0.020-0.020 0.010h-0.010l-1.89 0.94-1.1 0.53c-0.277 0.19-0.456 0.504-0.456 0.86 0 0.574 0.466 1.040 1.040 1.040 0.162 0 0.315-0.037 0.452-0.103l-0.006 0.003 0.81-0.43 1.32-0.68h0.8l-3.18 3.15-0.78 0.78c-0.18 0.175-0.293 0.419-0.293 0.69s0.112 0.515 0.292 0.69l0 0c0.175 0.175 0.418 0.283 0.685 0.283s0.51-0.108 0.685-0.283l0.77-0.77 1.020-0.76 0.52 0.53-1.030 1.020-0.78 0.78c-0.18 0.18-0.28 0.43-0.28 0.69 0 0.536 0.434 0.97 0.97 0.97v0c0.25 0 0.5-0.1 0.69-0.29l2.030-2.020 0.6-0.59 3.010-3.3 2.030 0.28h0.040l0.11-0.010 0.030-0.020 0.030-0.010 1.88-1.25 0.020-0.020 0.020-0.010 0.74-0.7c0.39-0.36 0.44-0.95 0.13-1.37zM27.91 17.030c-0.1 0.060-0.22 0.070-0.33 0.030s-0.2-0.1-0.25-0.2c-0.028-0.055-0.045-0.12-0.045-0.189 0-0.14 0.068-0.264 0.174-0.34l0.001-0.001 0.76-0.37 0.19 0.54 0.080 0.22-0.58 0.31zM29.95 15.97l-0.9 0.46-0.15-0.43-0.11-0.32 1.18-0.58-0.020 0.87zM38.75 12.1c0 0.54-0.12 1.040-0.34 1.5l-2.44-1.11c-0.030-0.34-0.2-0.63-0.46-0.81l0.85-2.84c1.399 0.45 2.395 1.738 2.4 3.259v0.001zM31.88 12.1c0.007-1.889 1.54-3.418 3.43-3.418 0.155 0 0.308 0.010 0.458 0.030l-0.018-0.002-0.83 2.77h-0.030c-0.6 0-1.1 0.49-1.1 1.1 0.002 0.6 0.49 1.086 1.090 1.086 0.406 0 0.76-0.222 0.947-0.55l0.003-0.005 2.25 1.020c-0.634 0.846-1.634 1.387-2.76 1.387-1.892 0-3.427-1.527-3.44-3.416v-0.001zM35.35 12.57c0 0.26-0.21 0.47-0.47 0.47s-0.47-0.21-0.47-0.47v0c0-0.26 0.22-0.47 0.48-0.47 0.25 0 0.46 0.21 0.46 0.47zM28.1 21.34c-0.064 0.065-0.152 0.105-0.25 0.105s-0.186-0.040-0.25-0.105l-0-0c-0.065-0.064-0.105-0.152-0.105-0.25s0.040-0.186 0.105-0.25l0-0 0.57-0.56 0.5 0.5-0.56 0.55zM29.98 23.51c-0.064 0.065-0.152 0.105-0.25 0.105-0.192 0-0.347-0.154-0.35-0.345v-0c0-0.1 0.030-0.18 0.1-0.25l0.56-0.56 0.5 0.5-0.56 0.55zM32 21.5l-1.030 1.030-0.5-0.5 1.040-1.030c0.020-0.023 0.037-0.049 0.049-0.078l0.001-0.002 0.020-0.020 0.010-0.080 0.010-0.040-0.020-0.12c-0.014-0.031-0.030-0.057-0.050-0.080l0 0-0.020-0.020-0.97-0.96c-0.020 0-0.040-0.020-0.050-0.030l-0.060-0.020c-0.018-0.005-0.038-0.009-0.059-0.010l-0.001-0h-0.050l-0.070 0.010-0.050 0.030c-0.010 0-0.030 0-0.040 0.020l-1.030 0.77-0.53-0.52 1.4-1.4 2.55 2.5-0.54 0.54zM35.98 17.4h-0.030c-0.001-0-0.003-0-0.004-0-0.062 0-0.119 0.019-0.167 0.051l0.001-0.001c-0.019 0.012-0.035 0.026-0.050 0.040l0-0s-0.020 0-0.020 0.020l-2.75 3-2.51-2.51 1.65-1.64c0.057-0.056 0.092-0.134 0.092-0.22 0-0.171-0.139-0.31-0.31-0.31-0.001 0-0.001 0-0.002 0h-1.3l0.020-0.93 1.81 0.020c0.736 0.754 1.763 1.222 2.899 1.222 0.269 0 0.532-0.026 0.786-0.076l-0.026 0.004 0.070 0.050 1.4 0.56 0.1 0.44 0.1 0.52-1.74-0.24zM38.33 17.51l-0.18-0.9 0.85-0.64 0.55 0.73-1.21 0.81zM40.53 15.86l-0.5 0.46-0.54-0.72 0.49-0.38c0.070-0.052 0.159-0.084 0.255-0.084 0.141 0 0.266 0.068 0.344 0.172l0.001 0.001c0.12 0.17 0.1 0.4-0.060 0.55z"></path>
    <path fill="#212121" style="fill: var(--color2, #212121)" d="M34.6 17.48l-1.25-1.24c-0.056-0.057-0.134-0.092-0.22-0.092s-0.164 0.035-0.22 0.092l-0 0-1.25 1.24c-0.057 0.058-0.092 0.137-0.092 0.225s0.035 0.167 0.093 0.225l-0-0 1.25 1.24c0.060 0.060 0.14 0.1 0.22 0.1s0.16-0.040 0.22-0.1l1.25-1.24c0.060-0.060 0.1-0.14 0.1-0.22s-0.040-0.17-0.1-0.23zM33.13 18.51l-0.8-0.8 0.8-0.81 0.81 0.8-0.8 0.81zM36.68 9.63l-0.15 0.6c0.040 0 1.010 0.26 1.010 1.25h0.63c0-1.17-0.98-1.73-1.5-1.86zM38.16 12.1h-0.62v0.63h0.63v-0.63z"></path>
</symbol>
<symbol id="icon-cliente1" viewBox="0 0 64 32">
    <path d="M22.94 4.28l4.23 4h-7.85v19.42h20.53v-7.43l4.22 4v-20h-21.13zM39.66 19.8l-12-11.35h12v11.35zM35.94 24.86h-13.37v-13.060h0.94v12.2h12.43v0.88zM25.73 30.3l-0.5 1.020-0.5-1.020h-0.4l0.71 1.36v0.79h0.38v-0.8l0.72-1.35h-0.42zM26.35 32.45l0.17-0.5h0.83l0.18 0.5h0.39l-0.82-2.15h-0.33l-0.81 2.15h0.39zM26.94 30.75l0.3 0.9h-0.61l0.3-0.9zM28.9 31.59c-0.050 0.076-0.080 0.169-0.080 0.269 0 0.004 0 0.008 0 0.012v-0.001c0 0.18 0.060 0.33 0.2 0.44 0.12 0.11 0.29 0.17 0.5 0.17s0.4-0.060 0.55-0.18l0.12 0.15h0.42l-0.32-0.38c0.13-0.16 0.19-0.38 0.19-0.64h-0.31c0 0.14-0.030 0.27-0.1 0.39l-0.4-0.49 0.14-0.1c0.1-0.080 0.18-0.16 0.22-0.23s0.070-0.16 0.070-0.25c0-0.003 0-0.006 0-0.009 0-0.132-0.058-0.25-0.15-0.331l-0-0c-0.096-0.087-0.223-0.14-0.363-0.14-0.006 0-0.012 0-0.018 0l0.001-0c-0.18 0-0.31 0.050-0.42 0.15s-0.15 0.23-0.15 0.4c0 0.070 0.020 0.14 0.050 0.21s0.1 0.16 0.17 0.27c-0.15 0.11-0.26 0.21-0.31 0.3zM29.87 32.070c-0.092 0.075-0.21 0.12-0.339 0.12-0 0-0 0-0.001 0h0c-0.1 0-0.2-0.030-0.25-0.1s-0.1-0.13-0.1-0.23c0-0.12 0.060-0.22 0.18-0.31l0.040-0.030 0.47 0.55zM29.49 31.12c-0.1-0.13-0.16-0.23-0.16-0.31 0-0.070 0.030-0.13 0.070-0.18s0.1-0.070 0.16-0.070c0.070 0 0.12 0.020 0.16 0.060s0.070 0.090 0.070 0.14c0 0.090-0.030 0.16-0.1 0.21l-0.040 0.040-0.16 0.1zM32.98 32.28c0.15-0.12 0.23-0.3 0.25-0.53h-0.37c-0.020 0.15-0.060 0.26-0.14 0.33s-0.18 0.1-0.33 0.1c-0.16 0-0.28-0.070-0.36-0.19s-0.13-0.3-0.13-0.53v-0.19c0-0.23 0.050-0.4 0.14-0.52 0.081-0.11 0.21-0.18 0.355-0.18 0.005 0 0.010 0 0.016 0l-0.001-0c0.14 0 0.24 0.040 0.32 0.1 0.070 0.070 0.11 0.19 0.13 0.34h0.37c-0.020-0.24-0.1-0.42-0.25-0.55s-0.33-0.19-0.57-0.19c-0.009-0-0.019-0.001-0.030-0.001-0.328 0-0.611 0.195-0.738 0.475l-0.002 0.005c-0.080 0.16-0.11 0.34-0.11 0.54v0.2c0 0.2 0.040 0.37 0.1 0.52s0.18 0.26 0.31 0.35c0.13 0.080 0.28 0.12 0.45 0.12 0.25 0 0.44-0.070 0.6-0.2zM35.18 31.98c0.060-0.15 0.1-0.34 0.1-0.55v-0.12c0-0.2-0.040-0.4-0.11-0.55s-0.18-0.28-0.32-0.36c-0.13-0.090-0.28-0.13-0.46-0.13s-0.33 0.040-0.47 0.13c-0.13 0.080-0.23 0.2-0.3 0.37s-0.12 0.34-0.12 0.55v0.12c0 0.2 0.040 0.39 0.11 0.55s0.18 0.27 0.32 0.36c0.13 0.080 0.29 0.13 0.46 0.13 0.005 0 0.012 0 0.018 0 0.339 0 0.631-0.203 0.76-0.495l0.002-0.005zM34.78 30.78c0.080 0.12 0.13 0.3 0.13 0.54v0.11c0 0.24-0.050 0.43-0.14 0.55s-0.21 0.19-0.38 0.19c-0.16 0-0.29-0.060-0.38-0.2s-0.14-0.3-0.14-0.54v-0.12c0-0.24 0.050-0.41 0.14-0.54 0.1-0.13 0.22-0.19 0.38-0.19 0.17 0 0.3 0.060 0.38 0.2z"></path>
</symbol>
<symbol id="icon-cliente2" viewBox="0 0 64 32">
    <path d="M30.26 3.64h-0.090l-0.38-0.020h-0.27c-0.003 0-0.007 0-0.011 0-0.27 0-0.539 0.007-0.806 0.022l0.037-0.002c-2.2 0.13-4.36 0.68-6.35 1.62l-0.26 0.13v13.36l0.6-0.2c1.96-0.705 4.222-1.124 6.578-1.15l0.012-0v1.75c-0.21 0-0.43 0-0.64 0.020h-0.050c-3.043 0.17-5.856 1.009-8.342 2.371l0.102-0.051v-17.14c1.47-0.86 3.050-1.5 4.7-1.92 1.45-0.37 2.94-0.56 4.43-0.57h0.26c0.3 0.010 0.6 0.020 0.9 0.050 0.73 0.050 1.47 0.17 2.2 0.35v1.73c-0.774-0.19-1.673-0.316-2.596-0.349l-0.024-0.001zM33.3 5.4c0.347 0.023 0.752 0.035 1.16 0.035 1.663 0 3.275-0.214 4.812-0.615l-0.132 0.029c1.56-0.4 3.060-0.98 4.48-1.75v16.84c-1.47 0.86-3.060 1.5-4.7 1.91-1.45 0.38-2.94 0.57-4.43 0.57-1.14 0.010-2.26-0.12-3.36-0.4v-16.93c0.627 0.152 1.368 0.265 2.127 0.318l0.043 0.002zM41.87 5.53l-0.61 0.2c-2.034 0.734-4.38 1.158-6.826 1.158-0.378 0-0.753-0.010-1.126-0.030l0.052 0.002-0.48-0.030v13.75l0.42 0.040c0.343 0.026 0.742 0.040 1.146 0.040 1.437 0 2.831-0.186 4.158-0.536l-0.113 0.025c1.070-0.27 2.12-0.64 3.12-1.12l0.26-0.12v-13.38zM21.58 27.35c-0.164-0.167-0.391-0.271-0.643-0.271-0.013 0-0.026 0-0.038 0.001l0.002-0c-0.005-0-0.011-0-0.016-0-0.265 0-0.505 0.103-0.684 0.271l0.001-0c-0.167 0.175-0.27 0.414-0.27 0.676 0 0.005 0 0.010 0 0.015v-0.001 2.29c0 0.16 0.030 0.32 0.1 0.47 0.097 0.232 0.294 0.405 0.534 0.469l0.006 0.001c0.1 0.030 0.22 0.040 0.34 0.050 0.526-0.006 0.95-0.433 0.95-0.96 0-0 0-0 0-0v0-0.26h-0.6v0.2c0 0.070-0.010 0.14-0.040 0.2-0.018 0.051-0.046 0.094-0.080 0.13l0-0c-0.068 0.055-0.155 0.088-0.25 0.090h-0c-0.060 0-0.11 0-0.16-0.020s-0.1-0.060-0.12-0.1c-0.050-0.081-0.080-0.178-0.080-0.283 0-0.006 0-0.012 0-0.018l-0 0.001v-2.14c0-0.12 0.020-0.24 0.070-0.35 0.055-0.081 0.146-0.134 0.25-0.134 0.018 0 0.035 0.002 0.052 0.004l-0.002-0c0.003-0 0.007-0 0.010-0 0.101 0 0.191 0.047 0.249 0.12l0 0.001c0.070 0.1 0.1 0.2 0.1 0.31v0.2h0.6v-0.23c0-0.14-0.030-0.28-0.080-0.4-0.046-0.128-0.114-0.238-0.2-0.33l0 0zM25.13 27.32c-0.19-0.16-0.43-0.25-0.68-0.25-0.256 0.003-0.49 0.097-0.672 0.251l0.002-0.001c-0.1 0.1-0.18 0.2-0.23 0.32-0.060 0.14-0.1 0.3-0.090 0.45v2.2c0 0.15 0.030 0.3 0.090 0.45 0.050 0.11 0.13 0.22 0.23 0.3 0.1 0.090 0.2 0.15 0.32 0.2 0.102 0.037 0.221 0.058 0.344 0.058 0.263 0 0.504-0.098 0.687-0.259l-0.001 0.001c0.197-0.173 0.321-0.426 0.321-0.707 0-0.015-0-0.030-0.001-0.045l0 0.002v-2.2c0-0.15-0.030-0.3-0.090-0.45-0.057-0.125-0.135-0.231-0.229-0.319l-0.001-0.001zM24.86 30.29c0.001 0.008 0.001 0.018 0.001 0.028 0 0.111-0.046 0.211-0.121 0.282l-0 0c-0.076 0.065-0.176 0.105-0.285 0.105s-0.209-0.040-0.286-0.105l0.001 0c-0.075-0.071-0.121-0.171-0.121-0.282 0-0.010 0-0.019 0.001-0.029l-0 0.001v-2.2c-0.001-0.011-0.002-0.024-0.002-0.037 0-0.111 0.047-0.212 0.122-0.283l0-0c0.076-0.065 0.176-0.105 0.285-0.105s0.209 0.040 0.286 0.105l-0.001-0c0.075 0.071 0.122 0.172 0.122 0.283 0 0.013-0.001 0.026-0.002 0.038l0-0.002v2.2zM29.8 31.27v-4.17h-0.57l-0.76 2.2-0.77-2.2h-0.57v4.16h0.6v-2.53l0.59 1.79h0.3l0.58-1.8h0.010v2.54h0.6zM33.18 27.4c-0.088-0.101-0.199-0.18-0.324-0.228l-0.006-0.002c-0.118-0.038-0.253-0.061-0.394-0.061-0.013 0-0.026 0-0.038 0.001l0.002-0h-0.89v4.16h0.6v-1.63h0.3c0.19 0.010 0.37-0.030 0.54-0.11 0.24-0.148 0.41-0.391 0.459-0.674l0.001-0.006c0.022-0.136 0.034-0.293 0.034-0.452 0-0.219-0.023-0.432-0.068-0.637l0.004 0.020c-0.043-0.149-0.119-0.277-0.22-0.38l0 0zM32.88 28.67c0 0.070-0.020 0.15-0.060 0.21-0.033 0.065-0.085 0.117-0.148 0.149l-0.002 0.001c-0.072 0.032-0.156 0.051-0.244 0.051-0.013 0-0.025-0-0.037-0.001l0.002 0h-0.27v-1.41h0.3c0.1 0 0.19 0.010 0.27 0.050 0.060 0.040 0.11 0.090 0.14 0.15 0.030 0.080 0.050 0.16 0.050 0.24v0.56zM35.99 27.1h-0.49l-0.91 4.17h0.6l0.17-0.9h0.8l0.18 0.9h0.59l-0.94-4.16zM35.44 29.8l0.3-1.5 0.3 1.5h-0.6zM39.82 29.61h-0.010l-0.9-2.5h-0.57v4.16h0.6v-2.5l0.91 2.5h0.56v-4.17h-0.6v2.5zM43.44 27.1l-0.48 1.66-0.49-1.65h-0.62l0.81 2.4v1.76h0.6v-1.77l0.8-2.4h-0.62z"></path>
</symbol>
<symbol id="icon-cliente3" viewBox="0 0 64 32">
    <path d="M21.98 29.7h0.030l0.15 0.15c-0.1 0.1-0.22 0.18-0.37 0.23-0.16 0.070-0.34 0.1-0.52 0.090-0.010 0-0.021 0-0.032 0-0.168 0-0.328-0.029-0.477-0.083l0.010 0.003c-0.279-0.095-0.498-0.3-0.608-0.563l-0.002-0.007c-0.050-0.15-0.080-0.3-0.080-0.45-0-0.010-0.001-0.022-0.001-0.034 0-0.468 0.309-0.863 0.733-0.994l0.007-0.002c0.16-0.050 0.33-0.080 0.5-0.080 0.011-0 0.024-0.001 0.037-0.001 0.301 0 0.578 0.106 0.795 0.282l-0.002-0.002-0.1 0.13-0.030 0.030c-0.007 0.003-0.016 0.004-0.025 0.004s-0.018-0.001-0.026-0.004l0.001 0h-0.050l-0.050-0.040-0.090-0.050c-0.075-0.038-0.163-0.066-0.255-0.079l-0.005-0.001c-0.054-0.009-0.116-0.014-0.179-0.014-0.136 0-0.267 0.023-0.389 0.066l0.008-0.003c-0.1 0.030-0.2 0.1-0.28 0.16-0.080 0.074-0.144 0.164-0.188 0.265l-0.002 0.005c-0.044 0.103-0.070 0.222-0.070 0.348 0 0.004 0 0.008 0 0.012v-0.001c0 0.12 0.020 0.24 0.070 0.36 0.088 0.201 0.252 0.356 0.455 0.428l0.005 0.002c0.1 0.040 0.22 0.060 0.34 0.060l0.2-0.010c0.166-0.020 0.314-0.089 0.431-0.191l-0.001 0.001c0.017-0.012 0.037-0.020 0.060-0.020v0zM25.78 29.070c0 0.15-0.020 0.3-0.090 0.44-0.050 0.13-0.13 0.25-0.24 0.35s-0.25 0.17-0.4 0.22c-0.31 0.11-0.67 0.11-1 0-0.146-0.052-0.273-0.127-0.381-0.221l0.001 0.001c-0.106-0.096-0.19-0.212-0.247-0.344l-0.003-0.006c-0.12-0.3-0.12-0.6 0-0.9 0.060-0.12 0.14-0.24 0.25-0.34s0.24-0.17 0.39-0.22c0.32-0.11 0.68-0.11 1 0 0.14 0.050 0.28 0.13 0.39 0.22 0.204 0.189 0.331 0.458 0.331 0.756 0 0.015-0 0.031-0.001 0.046l0-0.002zM25.44 29.070c0-0.001 0-0.003 0-0.004 0-0.128-0.026-0.251-0.072-0.362l0.002 0.006c-0.077-0.207-0.24-0.367-0.445-0.438l-0.005-0.002c-0.23-0.080-0.5-0.080-0.73 0-0.1 0.040-0.2 0.1-0.27 0.17-0.078 0.074-0.139 0.164-0.178 0.265l-0.002 0.005c-0.090 0.23-0.090 0.48 0 0.71 0.076 0.208 0.24 0.368 0.445 0.439l0.005 0.002c0.24 0.070 0.5 0.070 0.73 0 0.1-0.040 0.2-0.1 0.28-0.17 0.077-0.074 0.138-0.164 0.178-0.265l0.002-0.005c0.038-0.1 0.060-0.215 0.060-0.335 0-0.009-0-0.018-0-0.026l0 0.001zM28.38 29.44l0.030 0.080c0.030-0.067 0.056-0.119 0.085-0.17l-0.005 0.010 0.85-1.33 0.040-0.040h0.32v2.16h-0.3v-1.73l-0.84 1.34-0.050 0.050c-0.020 0.011-0.044 0.018-0.070 0.020l-0 0h-0.050c-0.030 0-0.050 0-0.070-0.020l-0.050-0.050-0.87-1.35v1.74h-0.29v-2.17h0.25l0.070 0.010c0.021 0.008 0.038 0.022 0.050 0.040l0 0 0.86 1.33 0.040 0.080zM31.54 29.33v0.81h-0.32v-2.14h0.73c0.14 0 0.28 0 0.4 0.040 0.12 0.030 0.21 0.070 0.3 0.14 0.070 0.050 0.13 0.13 0.16 0.2 0.040 0.1 0.060 0.19 0.060 0.28 0 0.006 0 0.013 0 0.020 0 0.196-0.094 0.37-0.239 0.479l-0.002 0.001c-0.082 0.062-0.179 0.111-0.284 0.139l-0.006 0.001c-0.111 0.032-0.239 0.050-0.372 0.050-0.010 0-0.020-0-0.030-0l0.001 0h-0.4zM31.54 29.1h0.4c0.008 0 0.018 0 0.028 0 0.083 0 0.162-0.011 0.238-0.032l-0.006 0.001c0.069-0.023 0.129-0.058 0.181-0.101l-0.001 0.001c0.092-0.076 0.15-0.19 0.15-0.317 0-0.001 0-0.002 0-0.003v0c0-0.060 0-0.12-0.030-0.17s-0.070-0.11-0.12-0.15c-0.11-0.076-0.247-0.122-0.394-0.122-0.016 0-0.032 0.001-0.048 0.002l0.002-0h-0.4v0.9zM35.97 30.15h-0.26l-0.070-0.020c-0.021-0.012-0.038-0.029-0.050-0.049l-0-0.001-0.22-0.53h-1.12l-0.24 0.53c-0.019 0.042-0.061 0.070-0.109 0.070-0 0-0.001 0-0.001 0h-0.26l0.99-2.16h0.34l1 2.16zM34.34 29.35h0.93l-0.4-0.89c-0.025-0.055-0.049-0.122-0.068-0.19l-0.002-0.010-0.040 0.11c0 0.040-0.020 0.070-0.030 0.1l-0.4 0.87zM37.4 28l0.040 0.030 1.44 1.63v-1.66h0.3v2.16h-0.18c-0.020 0-0.050 0-0.070-0.020-0.019-0.011-0.036-0.024-0.050-0.040l-0-0-1.44-1.62v1.67h-0.3v-2.17h0.18l0.060 0.010zM41.6 29.29v0.85h-0.33v-0.85l-0.9-1.3h0.29l0.070 0.010 0.040 0.050 0.57 0.84c0.036 0.057 0.069 0.123 0.097 0.191l0.003 0.009 0.050-0.1c0.016-0.039 0.033-0.072 0.052-0.104l-0.002 0.004 0.56-0.84c0.014-0.019 0.031-0.036 0.049-0.050l0.001-0c0.018-0.013 0.040-0.020 0.064-0.020 0.002 0 0.005 0 0.007 0h0.3l-0.92 1.3zM28.21 24.36l0.44 0.040c2.22-0.86 4.1-2.28 5.4-4.060s1.97-3.87 1.92-5.98l-2.45-2.13c0.5 2.25 0.27 4.58-0.67 6.72s-2.54 4.010-4.63 5.4z"></path>
    <path d="M27.34 24.26l0.070 0.010c2.23-1.39 3.94-3.33 4.9-5.57s1.1-4.68 0.44-7l-3.48-3.030c1.4 2.5 1.97 5.28 1.63 8.040s-1.57 5.38-3.56 7.55zM39.17 16.85c-0.676 2.466-2.127 4.527-4.070 5.959l-0.030 0.021c-0.61 0.45-1.26 0.86-1.96 1.21 1.7-0.43 3.24-1.19 4.54-2.22s2.3-2.31 2.93-3.74l-1.41-1.22z"></path>
    <path d="M38.61 16.51l-2.010-1.75c-0.040 2-0.7 3.95-1.9 5.65s-2.9 3.090-4.92 4.030h0.010c0.45 0 0.9-0.030 1.35-0.070 1.9-0.68 3.57-1.75 4.87-3.12s2.2-3 2.6-4.74zM27.63 7.4l-2.4-2.1c-2.15 0.73-4 2-5.3 3.64s-2 3.6-2.010 5.6c0 2.21 0.86 4.35 2.43 6.1s3.76 2.97 6.23 3.5c2.2-2.33 3.5-5.2 3.68-8.22s-0.73-6-2.63-8.53zM44.16 16.19c0-2.62-1.21-5.13-3.35-6.99s-5.020-2.9-8.040-2.9c-1.4 0-2.78 0.22-4.080 0.66l14.7 12.77c0.51-1.13 0.77-2.33 0.77-3.54z"></path>
</symbol>
<symbol id="icon-cliente4" viewBox="0 0 64 32">
    <path d="M14.58 12.8c-1.45 0-2.63 1.040-2.63 2.32 0 1.3 1.18 2.34 2.63 2.34s2.62-1.050 2.62-2.33c0-1.3-1.17-2.34-2.62-2.34zM33.93 12.050c0-1.79-0.8-3.5-2.23-4.77s-3.35-1.97-5.36-1.98c-2 0-3.94 0.72-5.36 1.98s-2.22 2.98-2.23 4.77v9.85s15.18-1.5 15.18-9.85zM6.64 25.14c0 1.24 0.56 2.43 1.55 3.31s2.33 1.38 3.73 1.38 2.74-0.5 3.73-1.37 1.55-2.070 1.55-3.32v-6.86s-10.56 1.050-10.56 6.86zM11.92 26.37c-0.27 0-0.54-0.070-0.77-0.2s-0.4-0.34-0.5-0.56c-0.11-0.23-0.14-0.47-0.090-0.71s0.19-0.46 0.38-0.63c0.263-0.224 0.607-0.361 0.983-0.361 0.185 0 0.363 0.033 0.528 0.094l-0.011-0.003c0.26 0.1 0.48 0.25 0.63 0.46s0.23 0.44 0.23 0.68c0 0.16-0.030 0.32-0.1 0.47s-0.17 0.29-0.3 0.4c-0.13 0.12-0.28 0.2-0.45 0.27s-0.35 0.1-0.53 0.1v-0.010zM21.57 24.17v2.57h-0.53v-2.57h0.53zM22.6 25.27v0.41h-1.17v-0.41h1.17zM22.72 24.17v0.41h-1.3v-0.41h1.3zM25.15 25.4v0.12c0 0.2-0.030 0.37-0.080 0.53s-0.13 0.28-0.23 0.4c-0.201 0.21-0.483 0.34-0.795 0.34-0.002 0-0.003 0-0.005 0h0c-0.014 0.001-0.031 0.001-0.048 0.001-0.299 0-0.568-0.132-0.751-0.34l-0.001-0.001c-0.185-0.259-0.297-0.581-0.3-0.929v-0.121c0.010-0.2 0.040-0.38 0.1-0.53 0.040-0.16 0.12-0.29 0.22-0.4 0.1-0.1 0.2-0.2 0.34-0.25 0.14-0.060 0.29-0.090 0.45-0.090s0.3 0.030 0.44 0.090 0.25 0.14 0.35 0.25c0.1 0.11 0.17 0.24 0.22 0.4 0.060 0.15 0.090 0.33 0.090 0.53zM24.61 25.52v-0.13c0-0.14-0.010-0.26-0.040-0.36s-0.060-0.19-0.1-0.26c-0.045-0.068-0.106-0.123-0.177-0.159l-0.003-0.001c-0.070-0.040-0.15-0.060-0.24-0.060s-0.17 0.020-0.24 0.060c-0.074 0.038-0.135 0.092-0.179 0.158l-0.001 0.002c-0.040 0.070-0.080 0.16-0.1 0.26s-0.040 0.22-0.040 0.36v0.13c0 0.13 0.010 0.25 0.040 0.36 0.020 0.1 0.060 0.2 0.1 0.26 0.087 0.133 0.235 0.22 0.404 0.22 0.006 0 0.011-0 0.017-0l-0.001 0c0.17-0.002 0.32-0.088 0.409-0.218l0.001-0.002c0.048-0.075 0.086-0.161 0.109-0.254l0.001-0.006c0.030-0.1 0.040-0.23 0.040-0.36zM26.87 26.070c0-0.050 0-0.090-0.020-0.12-0.018-0.041-0.045-0.075-0.079-0.1l-0.001-0c-0.030-0.040-0.080-0.070-0.15-0.1l-0.26-0.1c-0.136-0.041-0.245-0.082-0.352-0.128l0.022 0.008c-0.1-0.050-0.2-0.1-0.28-0.17-0.073-0.061-0.133-0.134-0.178-0.216l-0.002-0.004c-0.044-0.082-0.070-0.179-0.070-0.282 0-0.006 0-0.013 0-0.019l-0 0.001c0-0.1 0.020-0.2 0.070-0.28 0.050-0.093 0.117-0.17 0.198-0.229l0.002-0.001c0.085-0.065 0.185-0.116 0.293-0.148l0.007-0.002c0.106-0.029 0.227-0.046 0.352-0.046 0.191 0 0.372 0.039 0.537 0.109l-0.009-0.003c0.136 0.063 0.248 0.159 0.328 0.277l0.002 0.003c0.080 0.12 0.12 0.25 0.12 0.4h-0.53c0-0.002 0-0.004 0-0.006 0-0.071-0.019-0.138-0.051-0.196l0.001 0.002c-0.033-0.057-0.081-0.101-0.138-0.129l-0.002-0.001c-0.064-0.032-0.139-0.050-0.218-0.050-0.004 0-0.008 0-0.012 0h0.001c-0.1 0-0.17 0.020-0.23 0.050-0.057 0.020-0.104 0.055-0.14 0.099l-0 0.001c-0.031 0.044-0.050 0.098-0.050 0.157 0 0.001 0 0.002 0 0.004v-0c0 0.050 0.010 0.080 0.030 0.12l0.1 0.1 0.16 0.090 0.23 0.080c0.14 0.040 0.26 0.090 0.37 0.14 0.1 0.050 0.2 0.11 0.26 0.18s0.13 0.14 0.17 0.22c0.032 0.077 0.051 0.167 0.051 0.261 0 0.010-0 0.020-0.001 0.030l0-0.001c0 0.11-0.020 0.21-0.060 0.3s-0.11 0.16-0.2 0.22-0.17 0.11-0.29 0.14c-0.114 0.033-0.245 0.052-0.38 0.052s-0.266-0.019-0.39-0.054l0.010 0.002c-0.129-0.034-0.242-0.085-0.344-0.153l0.004 0.003c-0.2-0.135-0.33-0.36-0.33-0.616 0-0.008 0-0.017 0-0.025l-0 0.001h0.53c0 0.080 0.020 0.15 0.040 0.2s0.060 0.1 0.1 0.14c0.050 0.030 0.1 0.060 0.17 0.070 0.060 0.020 0.13 0.020 0.2 0.020 0.1 0 0.17 0 0.23-0.030s0.1-0.070 0.14-0.11c0.030-0.050 0.040-0.1 0.040-0.16zM28.91 24.17v2.57h-0.53v-2.57h0.53zM29.71 24.17v0.41h-2.1v-0.41h2.1zM31.73 26.33v0.41h-1.37v-0.41h1.38zM30.53 24.17v2.57h-0.52v-2.57h0.53zM31.56 25.22v0.4h-1.2v-0.4h1.2zM31.73 24.17v0.41h-1.37v-0.41h1.37zM32.050 24.17h0.95c0.2 0 0.36 0.030 0.5 0.090 0.15 0.050 0.26 0.14 0.33 0.26s0.12 0.26 0.12 0.42c0 0.14-0.030 0.26-0.070 0.36-0.048 0.097-0.116 0.177-0.198 0.239l-0.002 0.001c-0.080 0.070-0.18 0.12-0.3 0.16l-0.16 0.090h-0.84v-0.42h0.62c0.1 0 0.17-0.010 0.23-0.040s0.1-0.080 0.14-0.14c0.031-0.058 0.050-0.126 0.050-0.199 0-0 0-0.001 0-0.001v0c0-0.090-0.020-0.16-0.050-0.22s-0.080-0.1-0.14-0.14c-0.064-0.032-0.14-0.050-0.22-0.050-0.003 0-0.007 0-0.010 0h-0.429v2.16h-0.53v-2.57zM33.48 26.74l-0.58-1.14h0.56l0.6 1.12v0.020h-0.58zM36.27 25.83h-0.66v-0.42h0.66c0.1 0 0.18-0.020 0.25-0.050 0.060-0.030 0.1-0.080 0.14-0.14s0.040-0.13 0.040-0.2c0-0.080-0.010-0.15-0.040-0.22s-0.080-0.12-0.14-0.16-0.15-0.060-0.25-0.060h-0.47v2.16h-0.53v-2.57h1c0.2 0 0.37 0.040 0.52 0.1 0.269 0.13 0.451 0.4 0.451 0.713 0 0.013-0 0.026-0.001 0.038l0-0.002c0 0.16-0.040 0.3-0.12 0.43s-0.19 0.21-0.33 0.28c-0.15 0.060-0.32 0.1-0.52 0.1zM39.33 26.33v0.41h-1.37v-0.41h1.37zM38.13 24.17v2.57h-0.53v-2.57h0.53zM39.15 25.22v0.4h-1.19v-0.4h1.2zM39.33 24.17v0.41h-1.37v-0.41h1.37zM40.83 24.17v2.57h-0.53v-2.57h0.53zM41.62 24.17v0.41h-2.1v-0.41h2.1zM43.65 26.33v0.41h-1.37v-0.41h1.37zM42.45 24.17v2.57h-0.53v-2.57h0.53zM43.47 25.22v0.4h-1.19v-0.4h1.2zM43.65 24.17v0.41h-1.37v-0.41h1.37zM43.96 24.17h0.96c0.2 0 0.37 0.030 0.5 0.090 0.15 0.050 0.26 0.14 0.34 0.26s0.11 0.26 0.11 0.42c0 0.14-0.020 0.26-0.070 0.36-0.048 0.097-0.116 0.177-0.198 0.239l-0.002 0.001c-0.080 0.070-0.18 0.12-0.29 0.16l-0.17 0.090h-0.83v-0.42h0.61c0.1 0 0.17-0.010 0.24-0.040s0.1-0.080 0.13-0.14c0.031-0.058 0.050-0.126 0.050-0.199 0-0 0-0.001 0-0.001v0c0-0.090-0.010-0.16-0.040-0.22s-0.080-0.1-0.14-0.14c-0.065-0.032-0.141-0.050-0.221-0.050-0.007 0-0.013 0-0.020 0l0.001-0h-0.43v2.16h-0.53v-2.57zM45.4 26.74l-0.59-1.14h0.56l0.6 1.12v0.020h-0.57zM47.62 26.070c0-0.050 0-0.090-0.020-0.12-0.015-0.040-0.039-0.074-0.070-0.1l-0-0c-0.040-0.040-0.1-0.070-0.16-0.1l-0.25-0.1c-0.139-0.041-0.252-0.082-0.362-0.128l0.022 0.008c-0.1-0.050-0.2-0.1-0.27-0.17-0.077-0.060-0.14-0.133-0.188-0.216l-0.002-0.004c-0.044-0.082-0.070-0.179-0.070-0.282 0-0.006 0-0.013 0-0.019l-0 0.001c0-0.1 0.030-0.2 0.070-0.28 0.050-0.093 0.117-0.17 0.198-0.229l0.002-0.001c0.085-0.065 0.185-0.116 0.293-0.148l0.007-0.002c0.106-0.029 0.227-0.046 0.352-0.046 0.191 0 0.372 0.039 0.537 0.109l-0.009-0.003c0.136 0.063 0.248 0.159 0.328 0.277l0.002 0.003c0.080 0.12 0.12 0.25 0.12 0.4h-0.52c0-0.002 0-0.004 0-0.006 0-0.071-0.019-0.138-0.051-0.196l0.001 0.002c-0.035-0.058-0.087-0.103-0.148-0.129l-0.002-0.001c-0.064-0.032-0.139-0.050-0.218-0.050-0.004 0-0.008 0-0.012 0h0.001c-0.1 0-0.17 0.020-0.23 0.050-0.057 0.020-0.104 0.055-0.14 0.099l-0 0.001c-0.031 0.044-0.050 0.098-0.050 0.157 0 0.001 0 0.002 0 0.004v-0c0 0.050 0.010 0.080 0.040 0.12 0.020 0.040 0.050 0.070 0.1 0.1l0.16 0.090 0.22 0.080c0.14 0.040 0.26 0.090 0.37 0.14 0.1 0.050 0.2 0.11 0.27 0.18s0.12 0.14 0.16 0.22c0.032 0.077 0.051 0.167 0.051 0.261 0 0.010-0 0.020-0.001 0.030l0-0.001c0 0.11-0.020 0.21-0.060 0.3s-0.1 0.16-0.19 0.22-0.18 0.11-0.3 0.14c-0.114 0.033-0.245 0.052-0.38 0.052s-0.266-0.019-0.39-0.054l0.010 0.002c-0.126-0.035-0.235-0.086-0.334-0.153l0.004 0.003c-0.1-0.070-0.18-0.16-0.25-0.26s-0.090-0.23-0.090-0.38h0.54c0 0.080 0 0.15 0.030 0.2s0.060 0.1 0.1 0.14c0.050 0.030 0.1 0.060 0.17 0.070 0.060 0.020 0.13 0.020 0.21 0.020 0.1 0 0.17 0 0.23-0.030s0.1-0.070 0.13-0.11c0.030-0.050 0.040-0.1 0.040-0.16z"></path>
</symbol>
<symbol id="icon-cliente5" viewBox="0 0 64 32">
    <path d="M16.16 27.060c0.14 0.17 0.22 0.38 0.22 0.6 0 0.13-0.020 0.27-0.080 0.4s-0.15 0.24-0.27 0.34c-0.28 0.2-0.64 0.3-1 0.27h-1.75v-3.74h1.72c0.34-0.020 0.68 0.070 0.95 0.25 0.11 0.080 0.2 0.2 0.26 0.31s0.080 0.26 0.070 0.39c0.010 0.2-0.060 0.4-0.2 0.57-0.133 0.15-0.311 0.257-0.514 0.299l-0.006 0.001c0.24 0.030 0.44 0.15 0.6 0.31zM14.1 26.5h0.73c0.17 0 0.34-0.030 0.47-0.13 0.060-0.040 0.1-0.1 0.13-0.16s0.030-0.13 0.030-0.2 0-0.14-0.040-0.2-0.060-0.12-0.12-0.17c-0.117-0.077-0.26-0.123-0.414-0.123-0.023 0-0.046 0.001-0.069 0.003l0.003-0h-0.72v0.98zM15.37 27.93c0.060-0.050 0.1-0.1 0.14-0.17s0.040-0.14 0.030-0.2c0-0.080 0-0.15-0.040-0.22s-0.070-0.12-0.13-0.17c-0.127-0.088-0.284-0.141-0.454-0.141-0.016 0-0.032 0-0.048 0.001l0.002-0h-0.77v1.030h0.78c0.17 0.010 0.35-0.030 0.49-0.13zM19.66 28.67l-0.95-1.46h-0.36v1.46h-0.82v-3.74h1.55c0.4-0.020 0.79 0.1 1.090 0.32 0.21 0.2 0.35 0.47 0.37 0.75s-0.070 0.57-0.26 0.8c-0.19 0.2-0.45 0.33-0.74 0.38l1.020 1.5h-0.9zM18.36 26.7h0.66c0.47 0 0.7-0.19 0.7-0.57 0-0.070 0-0.15-0.030-0.22s-0.080-0.14-0.14-0.2c-0.128-0.095-0.289-0.153-0.464-0.153-0.023 0-0.046 0.001-0.069 0.003l0.003-0h-0.68l0.010 1.14zM24.16 27.92h-1.64l-0.29 0.75h-0.86l1.5-3.7h0.93l1.5 3.7h-0.86l-0.28-0.75zM23.94 27.35l-0.6-1.58-0.6 1.58h1.2zM29.78 28.67h-0.82l-1.82-2.54v2.54h-0.82v-3.74h0.82l1.82 2.56v-2.56h0.82v3.74zM34.44 27.77c-0.177 0.288-0.429 0.514-0.73 0.656l-0.010 0.004c-0.32 0.152-0.696 0.241-1.092 0.241-0.020 0-0.040-0-0.061-0.001l0.003 0h-1.45v-3.74h1.45c0.4 0 0.8 0.070 1.15 0.23 0.3 0.15 0.57 0.37 0.73 0.65 0.161 0.284 0.256 0.623 0.256 0.985s-0.095 0.701-0.262 0.995l0.005-0.010zM33.5 27.68c0.23-0.24 0.36-0.56 0.36-0.89s-0.13-0.64-0.36-0.89c-0.253-0.201-0.577-0.323-0.93-0.323-0.032 0-0.063 0.001-0.095 0.003l0.004-0h-0.57v2.42h0.57c0.37 0.020 0.74-0.090 1.020-0.31zM24.67 4.14s10.53 3.64 10.3 8.9v8.91s-10.52-3.64-10.3-8.9v-8.92zM44.35 19.87c1.911-1.213 4.191-2.023 6.639-2.255l0.061-0.005v-2.79c-2.773 0.97-5.065 2.73-6.671 5.007l-0.029 0.043z"></path>
    <path d="M43.16 20.7c1.63-3 4.45-5.3 7.88-6.46v-8.040s-15 5.19-14.68 12.69v12.68s0.67-0.23 1.72-0.67c0-0.4 0-0.81 0.050-1.22 0.31-3.48 2.12-6.71 5.030-8.97z"></path>
    <path d="M41.73 25.42c0.080-0.88 0.26-1.75 0.53-2.6-1.889 2.005-3.081 4.684-3.179 7.641l-0.001 0.019c0.86-0.37 1.85-0.84 2.89-1.39-0.27-1.2-0.35-2.44-0.24-3.67zM42.33 25.46c-0.031 0.315-0.048 0.681-0.048 1.051 0 0.807 0.083 1.594 0.241 2.354l-0.013-0.075c4.1-2.24 8.7-5.71 8.53-9.9v-0.37c-3.012 0.3-5.694 1.513-7.817 3.355l0.017-0.015c-0.5 1.15-0.8 2.37-0.91 3.6z"></path>
</symbol>
<symbol id="icon-cliente6" viewBox="0 0 64 32">
    <path d="M32.26 16.6c-0.27-0.36-0.4-0.78-0.37-1.2v-1.74c0-0.54 0.12-0.94 0.36-1.22s0.66-0.41 1.25-0.41c0.56 0 0.95 0.12 1.18 0.35 0.26 0.3 0.38 0.67 0.35 1.040v0.41h-1v-0.41c0.010-0.14 0-0.27-0.020-0.4-0.014-0.101-0.065-0.189-0.139-0.249l-0.001-0.001c-0.091-0.063-0.203-0.101-0.324-0.101-0.013 0-0.025 0-0.038 0.001l0.002-0c-0.014-0.001-0.030-0.002-0.046-0.002-0.125 0-0.24 0.038-0.336 0.103l0.002-0.001c-0.081 0.067-0.139 0.161-0.16 0.267l-0 0.003c-0.030 0.14-0.040 0.29-0.040 0.43v2.11c-0.020 0.2 0.030 0.41 0.13 0.6 0.040 0.060 0.11 0.11 0.2 0.14s0.16 0.040 0.25 0.030c0.13 0.010 0.25-0.020 0.35-0.1 0.076-0.062 0.13-0.148 0.15-0.247l0-0.003 0.030-0.42v-0.43h1v0.4c0.020 0.38-0.1 0.76-0.35 1.080-0.23 0.26-0.62 0.4-1.19 0.4s-1-0.15-1.24-0.43zM36.38 16.62c-0.25-0.27-0.37-0.67-0.37-1.19v-1.83c0-0.52 0.12-0.9 0.37-1.17s0.67-0.4 1.26-0.4c0.58 0 1 0.13 1.25 0.4 0.25 0.26 0.37 0.65 0.37 1.17v1.83c0 0.52-0.12 0.91-0.38 1.19s-0.67 0.4-1.24 0.4c-0.58 0-1-0.13-1.26-0.4zM38.1 16.18c0.090-0.17 0.13-0.36 0.12-0.54v-2.25c0.001-0.016 0.001-0.034 0.001-0.052 0-0.175-0.045-0.34-0.124-0.483l0.003 0.005c-0.050-0.060-0.12-0.11-0.2-0.14s-0.17-0.040-0.26-0.030c-0.1-0.010-0.18 0-0.27 0.030s-0.15 0.080-0.2 0.14c-0.077 0.136-0.122 0.299-0.122 0.473 0 0.020 0.001 0.040 0.002 0.060l-0-0.003v2.26c-0.001 0.018-0.002 0.040-0.002 0.062 0 0.175 0.045 0.34 0.124 0.484l-0.003-0.005c0.060 0.060 0.13 0.1 0.21 0.13s0.17 0.050 0.26 0.050c0.178-0.001 0.339-0.069 0.461-0.18l-0.001 0v-0.010zM40.45 12.080h1.070l0.8 3.38 0.82-3.38h1.040l0.1 4.88h-0.76l-0.080-3.39-0.8 3.39h-0.6l-0.83-3.4-0.080 3.4h-0.77l0.1-4.88zM45.48 12.080h1.66c0.96 0 1.44 0.46 1.44 1.39 0 0.88-0.5 1.32-1.51 1.32h-0.57v2.17h-1.030l0.010-4.88zM46.9 14.17c0.1 0 0.2 0 0.3-0.030s0.2-0.070 0.27-0.13c0.091-0.128 0.145-0.287 0.145-0.46 0-0.032-0.002-0.063-0.005-0.094l0 0.004c0-0.15 0-0.3-0.040-0.44-0.020-0.050-0.040-0.1-0.080-0.14s-0.080-0.070-0.13-0.1c-0.14-0.050-0.3-0.080-0.46-0.070h-0.4v1.45h0.4zM50.060 12.080h1.1l1.13 4.88h-0.96l-0.22-1.13h-0.98l-0.23 1.13h-0.97l1.13-4.88zM51 15.27l-0.38-2.050-0.39 2.050h0.77zM53.2 12.080h0.72l1.38 2.78v-2.78h0.85v4.88h-0.69l-1.38-2.9v2.9h-0.88v-4.88zM58.14 15.1l-1.14-3.010h0.96l0.7 1.93 0.65-1.93h0.94l-1.13 3v1.87h-0.98v-1.86zM33.84 19.090v0.26h-0.84v1.98h-0.35v-1.99h-0.84v-0.25h2.030zM36.46 21.33h-0.27c-0.020 0-0.050 0-0.070-0.020-0.021-0.011-0.039-0.029-0.050-0.049l-0-0.001-0.24-0.54h-1.16l-0.24 0.54-0.040 0.060c-0.019 0.013-0.042 0.021-0.067 0.021-0.004 0-0.009-0-0.013-0.001l0.001 0h-0.27l1.030-2.24h0.36l1.030 2.23zM34.76 20.5h0.97l-0.4-0.91c-0.028-0.057-0.055-0.127-0.077-0.199l-0.003-0.011-0.040 0.12-0.44 0.99zM38.23 21.1h0.2c0.109-0.007 0.212-0.028 0.308-0.062l-0.008 0.002 0.14-0.060v-0.5h-0.44l-0.020-0.020-0.020-0.010v-0.2h0.8v0.86c-0.199 0.127-0.438 0.21-0.695 0.23l-0.005 0-0.3 0.010c-0.17 0-0.35-0.030-0.51-0.080s-0.3-0.13-0.41-0.24c-0.12-0.1-0.2-0.22-0.27-0.35-0.063-0.134-0.1-0.292-0.1-0.458 0-0.001 0-0.001 0-0.002v0c0-0.16 0.040-0.32 0.1-0.47 0.060-0.13 0.15-0.25 0.27-0.36 0.11-0.1 0.25-0.18 0.4-0.23 0.161-0.055 0.347-0.086 0.54-0.086 0.106 0 0.21 0.010 0.311 0.028l-0.011-0.002c0.168 0.024 0.319 0.073 0.458 0.144l-0.008-0.004 0.18 0.12-0.1 0.14-0.030 0.030-0.050 0.010c-0.020 0-0.050 0-0.060-0.020-0.042-0.019-0.074-0.035-0.106-0.053l0.006 0.003c-0.168-0.084-0.367-0.134-0.577-0.134-0.144 0-0.283 0.023-0.413 0.066l0.009-0.003c-0.228 0.069-0.409 0.233-0.498 0.445l-0.002 0.005c-0.1 0.25-0.1 0.51 0 0.75 0.040 0.1 0.11 0.2 0.2 0.29 0.154 0.141 0.36 0.227 0.587 0.227 0.040 0 0.079-0.003 0.118-0.008l-0.005 0zM41.5 21.070h1.12v0.26h-1.46v-2.24h0.35v1.98zM43.79 21.33h-0.35v-2.24h0.35v2.24zM45.1 19.1l0.040 0.040 1.5 1.69v-1.75h0.3v2.25h-0.17c-0.020 0-0.050 0-0.070-0.020-0.023-0.010-0.043-0.024-0.060-0.040l0 0-1.5-1.68v1.74h-0.29v-2.24h0.18l0.060 0.010zM49.53 19.090v0.25h-1.23v0.73h1v0.24h-1v0.76h1.24v0.25h-1.6v-2.23h1.6zM12.78 5.28l15.57 3.82v13.37l-15.57-3.81v-13.38zM11.78 4.14v15.16l17.57 4.3v-15.14l-17.57-4.32z"></path>
    <path d="M21.2 30.66l-17.58-4.31v-15.17l17.57 4.3v15.18z"></path>
    <path d="M12.070 5.1l15.37 3.78-6.54 5.64-15.37-3.77 6.54-5.64zM11.77 4.14l-8.15 7.040 17.57 4.3 8.16-7.030-17.57-4.31zM22.18 29.8l7.17-6.18-7.17-1.76v7.95z"></path>
</symbol>
<symbol id="icon-diagrama" viewBox="0 0 72 32">
    <path fill="#f5f4fa" style="fill: var(--color1, #f5f4fa)" d="M1.070 0h69.86c0.6 0 1.070 0.48 1.070 1.070v29.86c0 0.6-0.48 1.070-1.070 1.070h-69.86c-0.6 0-1.070-0.48-1.070-1.070v-29.86c0-0.6 0.48-1.070 1.070-1.070z"></path>
    <path fill="#2196f3" style="fill: var(--color3, #2196f3)" d="M35.37 15.4h0.63v2.8h-0.63v-2.8zM37.86 16.64h0.62v1.55h-0.62v-1.55zM32.89 17.57h0.62v0.63h-0.62v-0.63zM31.020 17.26h0.62v0.93h-0.62v-0.93z"></path>
    <path fill="#212121" style="fill: var(--color2, #212121)" d="M27.6 23.17h14.92c0.52 0 0.94-0.42 0.94-0.93v-1.25c0-0 0-0 0-0 0-0.514-0.416-0.93-0.93-0.93-0.004 0-0.007 0-0.011 0h-0.299v-7.75l1.76-1.68c0.119 0.059 0.259 0.093 0.407 0.093 0.519 0 0.94-0.421 0.94-0.94s-0.421-0.94-0.94-0.94c-0.519 0-0.94 0.421-0.94 0.94 0 0.148 0.034 0.288 0.095 0.413l-0.002-0.006-1.33 1.26v-0.72c0-0.514-0.416-0.93-0.93-0.93h-12.44c-0.514 0-0.93 0.416-0.93 0.93v0 9.33h-0.31c-0.003-0-0.006-0-0.010-0-0.514 0-0.93 0.416-0.93 0.93 0 0 0 0 0 0v0 1.25c0 0.51 0.42 0.93 0.94 0.93zM44.4 9.49c0.171 0 0.31 0.139 0.31 0.31s-0.139 0.31-0.31 0.31v0c-0.171 0-0.31-0.139-0.31-0.31s0.139-0.31 0.31-0.31v0zM28.53 10.73c0-0.17 0.14-0.3 0.31-0.3h12.44c0.17 0 0.31 0.13 0.31 0.3v1.3l-0.62 0.6v-1.28c-0.006-0.167-0.142-0.3-0.31-0.3-0 0-0 0-0 0h-11.2c-0.163 0.005-0.295 0.136-0.3 0.3v7.781c0 0.17 0.13 0.3 0.3 0.3h11.2c0.17 0 0.31-0.13 0.31-0.3v-5.64l0.62-0.6v7.17h-13.060v-9.33zM31.33 14.77c-0.511 0.003-0.925 0.418-0.925 0.93 0 0.514 0.416 0.93 0.93 0.93 0.251 0 0.478-0.099 0.645-0.26l-0 0 1.080 0.55c0.12 0.060 0.28 0.030 0.37-0.070l2.3-2.59 2.26 1.7c0.12 0.080 0.29 0.070 0.4-0.030l1.96-1.86v4.75h-10.57v-7.16h10.57v1.56l-2.2 2.080-2.28-1.7c-0.053-0.042-0.12-0.068-0.194-0.068-0.089 0-0.169 0.038-0.226 0.098l-0 0-2.33 2.62-0.87-0.43 0.010-0.11c0-0.003 0-0.006 0-0.010 0-0.514-0.416-0.93-0.93-0.93-0 0-0 0-0 0v0zM31.64 15.71c0 0.171-0.139 0.31-0.31 0.31s-0.31-0.139-0.31-0.31v0c0-0.171 0.139-0.31 0.31-0.31s0.31 0.139 0.31 0.31v0zM33.51 20.68h3.1v0.32c0 0.18-0.13 0.31-0.3 0.31h-2.5c-0.163-0.005-0.295-0.137-0.3-0.299v-0.32zM27.29 20.99c0-0.17 0.14-0.3 0.31-0.3h5.29v0.3c0 0.52 0.41 0.94 0.93 0.94h2.49c0.51 0 0.93-0.42 0.93-0.94v-0.3h5.29c0.17 0 0.3 0.13 0.3 0.3v1.25c0 0.17-0.13 0.3-0.3 0.3h-14.93c-0 0-0 0-0 0-0.168 0-0.304-0.133-0.31-0.299v-1.25z"></path>
</symbol>
<symbol id="icon-facebook" viewBox="0 0 32 32">
    <path d="M21.33 5.31h2.92v-5.080c-0.5-0.080-2.24-0.23-4.26-0.23-4.2 0-7.1 2.65-7.1 7.52v4.48h-4.63v5.69h4.65v14.31h5.7v-14.31h4.46l0.7-5.69h-5.17v-3.92c0-1.64 0.45-2.77 2.74-2.77z"></path>
</symbol>
<symbol id="icon-instagram" viewBox="0 0 32 32">
    <path d="M31.97 9.4c-0.028-1.397-0.297-2.723-0.767-3.95l0.027 0.080c-0.426-1.113-1.059-2.060-1.858-2.838l-0.002-0.002c-0.779-0.794-1.723-1.423-2.776-1.832l-0.054-0.018c-1.020-0.39-2.18-0.67-3.88-0.74-1.71-0.080-2.26-0.1-6.6-0.1s-4.89 0.020-6.6 0.1c-1.7 0.060-2.86 0.33-3.88 0.73-1.112 0.423-2.060 1.053-2.839 1.849l-0.001 0.001c-0.791 0.782-1.417 1.729-1.822 2.786l-0.018 0.054c-0.4 1.020-0.67 2.18-0.74 3.88-0.080 1.71-0.1 2.26-0.1 6.6s0.020 4.9 0.090 6.6c0.080 1.7 0.35 2.87 0.74 3.88 0.427 1.111 1.056 2.058 1.849 2.839l0.001 0.001c0.8 0.81 1.77 1.44 2.84 1.84 1.020 0.4 2.18 0.67 3.88 0.75 1.7 0.070 2.25 0.090 6.6 0.090s4.88-0.020 6.59-0.1c1.401-0.027 2.73-0.296 3.96-0.767l-0.080 0.027c2.156-0.849 3.831-2.524 4.661-4.625l0.019-0.055c0.4-1.020 0.67-2.18 0.75-3.88 0.070-1.7 0.090-2.25 0.090-6.6s0-4.89-0.080-6.6zM29.090 22.47c-0.011 1.069-0.212 2.089-0.57 3.030l0.020-0.060c-0.551 1.401-1.639 2.489-3.004 3.027l-0.036 0.013c-0.56 0.22-1.41 0.48-2.97 0.55-1.69 0.070-2.2 0.1-6.46 0.1s-4.79-0.020-6.47-0.1c-1.069-0.011-2.089-0.212-3.030-0.57l0.060 0.020c-0.722-0.271-1.337-0.68-1.839-1.199l-0.001-0.001c-0.514-0.502-0.92-1.113-1.179-1.796l-0.011-0.034c-0.337-0.881-0.538-1.9-0.55-2.965l-0-0.005c-0.070-1.69-0.1-2.2-0.1-6.47s0.030-4.78 0.1-6.46c0.070-1.56 0.33-2.4 0.55-2.97 0.26-0.7 0.66-1.32 1.2-1.84 0.505-0.515 1.119-0.921 1.806-1.179l0.034-0.011c0.878-0.336 1.894-0.537 2.954-0.55l0.006-0c1.69-0.070 2.2-0.1 6.46-0.1 4.28 0 4.78 0.030 6.47 0.1 1.56 0.070 2.4 0.33 2.96 0.55 0.7 0.26 1.33 0.66 1.84 1.2 0.53 0.51 0.94 1.14 1.2 1.83 0.22 0.57 0.48 1.42 0.55 2.97 0.070 1.69 0.1 2.2 0.1 6.46s-0.030 4.77-0.1 6.46z"></path>
    <path d="M16.060 7.78c-4.543 0-8.225 3.682-8.225 8.225s3.682 8.225 8.225 8.225v0c4.543 0 8.225-3.682 8.225-8.225s-3.682-8.225-8.225-8.225v0zM16.060 21.33c-2.944 0-5.33-2.386-5.33-5.33s2.386-5.33 5.33-5.33v0c2.946 0 5.335 2.389 5.335 5.335s-2.389 5.335-5.335 5.335v0zM26.52 7.46c0.003 0.041 0.005 0.090 0.005 0.138 0 1.060-0.86 1.92-1.92 1.92s-1.92-0.86-1.92-1.92c0-0.049 0.002-0.097 0.005-0.145l-0 0.006c0.074-0.999 0.903-1.782 1.915-1.782s1.841 0.782 1.915 1.775l0 0.006z"></path>
</symbol>
<symbol id="icon-linkedin" viewBox="0 0 32 32">
    <path d="M32 32v-11.74c0-5.74-1.24-10.16-7.95-10.16-3.23 0-5.39 1.77-6.27 3.45h-0.1v-2.92h-6.36v21.37h6.63v-10.58c0-2.79 0.52-5.48 3.97-5.48 3.4 0 3.45 3.18 3.45 5.66v10.4h6.63zM0.53 10.64h6.63v21.36h-6.63v-21.36zM3.84 0c-2.12 0-3.84 1.72-3.84 3.84s1.72 3.88 3.84 3.88c2.134-0.011 3.86-1.744 3.86-3.88 0-0 0-0 0-0v0c-0.006-2.122-1.727-3.84-3.85-3.84-0.004 0-0.007 0-0.011 0h0.001z"></path>
</symbol>
<symbol id="icon-sobre" viewBox="0 0 43 32">
    <path  d="M38.67 0h-34.67c-2.209 0-4 1.791-4 4v0 24c0 2.209 1.791 4 4 4v0h34.67c2.209 0 4-1.791 4-4v0-24c0-2.209-1.791-4-4-4v0zM38.67 2.67c0.18 0 0.35 0.030 0.5 0.1l-17.83 15.47-17.84-15.47c0.16-0.070 0.33-0.1 0.51-0.1h34.67zM38.67 29.33h-34.67c-0.74 0-1.33-0.6-1.33-1.33v-22.41l17.79 15.41c0.233 0.204 0.539 0.328 0.875 0.328s0.642-0.124 0.877-0.33l-0.002 0.001 17.79-15.41v22.41c0 0.74-0.6 1.33-1.34 1.33z"></path>
</symbol>
<symbol id="icon-telefono-inteligente" viewBox="0 0 20 32">
    <path d="M17 0h-14c-1.657 0-3 1.343-3 3v0 26c0 1.657 1.343 3 3 3v0h14c1.657 0 3-1.343 3-3v0-26c0-1.657-1.343-3-3-3v0zM3 2h14c0.552 0 1 0.448 1 1v0 21h-16v-21c0-0.552 0.448-1 1-1v0zM17 30h-14c-0.552 0-1-0.448-1-1v0-3h16v3c0 0.552-0.448 1-1 1v0z"></path>
    <path fill="#757575" style="fill: var(--color5, #757575)" d="M4.7 27.48c0.4 0.36 0.4 0.95 0 1.32s-1.020 0.36-1.4 0c-0.4-0.37-0.4-0.96 0-1.32s1.020-0.37 1.4 0z"></path>
</symbol>
<symbol id="icon-twitter" viewBox="0 0 32 32">
    <path d="M32 6.080c-1.19 0.52-2.46 0.87-3.78 1.030 1.361-0.814 2.384-2.074 2.877-3.574l0.013-0.046c-1.197 0.723-2.591 1.275-4.076 1.576l-0.084 0.014c-1.202-1.286-2.909-2.087-4.803-2.087-3.628 0-6.57 2.942-6.57 6.57 0 0.531 0.063 1.047 0.182 1.542l-0.009-0.045c-5.467-0.277-10.276-2.877-13.493-6.826l-0.027-0.034c-0.563 0.948-0.895 2.091-0.895 3.311 0 2.266 1.147 4.264 2.892 5.445l0.023 0.015c-1.094-0.030-2.113-0.326-3.002-0.827l0.032 0.017v0.070c0.007 3.163 2.241 5.802 5.217 6.432l0.043 0.008c-0.51 0.142-1.095 0.224-1.7 0.224-0.449 0-0.888-0.045-1.312-0.132l0.042 0.007c0.869 2.628 3.271 4.505 6.121 4.58l0.009 0c-2.214 1.743-5.042 2.796-8.116 2.796-0.558 0-1.108-0.035-1.648-0.102l0.064 0.007c2.829 1.85 6.293 2.95 10.014 2.95 0.016 0 0.033-0 0.049-0h-0.003c12.080 0 18.68-10 18.68-18.67 0-0.29-0.010-0.57-0.030-0.85 1.3-0.92 2.4-2.070 3.29-3.4z"></path>
</symbol>
<symbol id="icon-reloj" viewBox="0 0 72 32">
    <path fill="#f5f4fa" style="fill: var(--color1, #f5f4fa)" d="M1.070 0h69.86c0.6 0 1.070 0.48 1.070 1.070v29.86c0 0.6-0.48 1.070-1.070 1.070h-69.86c-0.6 0-1.070-0.48-1.070-1.070v-29.86c0-0.6 0.48-1.070 1.070-1.070z"></path>
    <path fill="#212121" style="fill: var(--color2, #212121)" d="M44.92 15.6c0-0.007 0-0.015 0-0.023 0-4.932-3.998-8.93-8.93-8.93s-8.93 3.998-8.93 8.93c0 4.004 2.636 7.393 6.267 8.526l0.063 0.017c0.074-0.002 0.143-0.024 0.202-0.061l-0.002 0.001c0.075-0.046 0.131-0.115 0.159-0.197l0.001-0.003 2.26-7.15c0.001 0 0.003 0 0.004 0 0.619 0 1.12-0.501 1.12-1.12s-0.501-1.12-1.12-1.12c-0.184 0-0.358 0.044-0.511 0.123l0.006-0.003-2.97-2.98c-0.067-0.069-0.161-0.111-0.265-0.111-0.205 0-0.371 0.166-0.371 0.371 0 0.101 0.041 0.193 0.106 0.26l-0-0 2.99 2.98c-0.071 0.141-0.112 0.308-0.112 0.484 0 0.351 0.164 0.663 0.42 0.864l0.002 0.002-2.14 6.81c-3.159-1.187-5.367-4.183-5.367-7.695 0-4.529 3.671-8.2 8.2-8.2s8.2 3.671 8.2 8.2c0 3.324-1.978 6.187-4.822 7.474l-0.052 0.021-0.23-1.1c-0.036-0.17-0.184-0.295-0.362-0.295-0.095 0-0.182 0.036-0.248 0.095l0-0-2.24 2c-0.077 0.068-0.126 0.167-0.126 0.278 0 0.164 0.106 0.302 0.253 0.351l0.003 0.001 2.86 0.91c0.035 0.012 0.076 0.020 0.119 0.020 0.204 0 0.37-0.166 0.37-0.37 0-0.028-0.003-0.056-0.009-0.082l0 0.002-0.23-1.070c3.224-1.386 5.44-4.534 5.44-8.2 0-0.007 0-0.014-0-0.021v0.001zM36 15.21c0.207 0 0.375 0.168 0.375 0.375s-0.168 0.375-0.375 0.375v0c-0.207 0-0.375-0.168-0.375-0.375s0.168-0.375 0.375-0.375v0zM37.23 23.88l1.27-1.14 0.36 1.66-1.63-0.52z"></path>
    <path fill="#2196f3" style="fill: var(--color3, #2196f3)" d="M35.62 8.53v0.74c0 0.207 0.168 0.375 0.375 0.375s0.375-0.168 0.375-0.375v0-0.74c0-0.207-0.168-0.375-0.375-0.375s-0.375 0.168-0.375 0.375v0zM28.93 15.22c-0.204 0-0.37 0.166-0.37 0.37s0.166 0.37 0.37 0.37h0.74c0.204 0 0.37-0.166 0.37-0.37s-0.166-0.37-0.37-0.37h-0.74zM43.060 15.96c0.204 0 0.37-0.166 0.37-0.37s-0.166-0.37-0.37-0.37h-0.74c-0.204 0-0.37 0.166-0.37 0.37s0.166 0.37 0.37 0.37h0.74z"></path>
</symbol>
<symbol id="icon-x" viewBox="0 0 11 11">
<path d="M11 1.10786L9.89214 0L5.5 4.39214L1.10786 0L0 1.10786L4.39214 5.5L0 9.89214L1.10786 11L5.5 6.60786L9.89214 11L11 9.89214L6.60786 5.5L11 1.10786Z" fill="black"/>
</symbol>
<symbol id="icon-mail" viewBox="0 0 43 32">
<path d="M37.333 0h-32c-2.2 0-3.98 1.8-3.98 4l-0.020 24c0 2.2 1.8 4 4 4h32c2.2 0 4-1.8 4-4v-24c0-2.2-1.8-4-4-4zM36.533 8.5l-14.14 8.84c-0.64 0.4-1.48 0.4-2.12 0l-14.14-8.84c-0.5-0.32-0.8-0.86-0.8-1.44 0-1.34 1.46-2.14 2.6-1.44l13.4 8.38 13.4-8.38c1.14-0.7 2.6 0.1 2.6 1.44 0 0.58-0.3 1.12-0.8 1.44z"></path>
</symbol>
<symbol id="icon-person" viewBox="0 0 32 32">
<path d="M16 16c4.42 0 8-3.58 8-8s-3.58-8-8-8c-4.42 0-8 3.58-8 8s3.58 8 8 8zM16 20c-5.34 0-16 2.68-16 8v2c0 1.1 0.9 2 2 2h28c1.1 0 2-0.9 2-2v-2c0-5.32-10.66-8-16-8z"></path>
</symbol>
<symbol id="icon-phone" viewBox="0 0 32 32">
<path d="M27.419 20.852l-4.201-0.48c-1.009-0.116-2.002 0.232-2.713 0.943l-3.044 3.044c-4.681-2.382-8.519-6.203-10.901-10.901l3.060-3.060c0.711-0.711 1.059-1.704 0.943-2.713l-0.48-4.168c-0.198-1.671-1.604-2.928-3.292-2.928h-2.862c-1.869 0-3.424 1.555-3.308 3.424 0.877 14.126 12.174 25.407 26.284 26.284 1.869 0.116 3.424-1.439 3.424-3.308v-2.861c0.016-1.671-1.241-3.077-2.911-3.275v0z"></path>
</symbol>
<symbol id="icon-sendplane" viewBox="0 0 32 32">
<path d="M32 0l-32 18 10.227 3.788 15.773-14.788-11.998 16.186 0.010 0.004-0.012-0.004v8.814l5.735-6.691 7.265 2.691 5-28z"></path>
</symbol>

</defs>
</svg>
